<svg width="49" height="48" viewBox="0 0 49 48" fill="none" xmlns="http://www.w3.org/2000/svg">
<path d="M36.75 0H12.25C5.488 0 0 5.35468 0 11.958V26.3172V28.7184C0 35.3217 5.488 40.6763 12.25 40.6763H15.925C16.5865 40.6763 17.4685 41.1086 17.885 41.6368L21.56 46.4152C23.177 48.5283 25.823 48.5283 27.44 46.4152L31.115 41.6368C31.5805 41.0365 32.3155 40.6763 33.075 40.6763H36.75C43.512 40.6763 49 35.3217 49 28.7184V11.958C49 5.35468 43.512 0 36.75 0ZM14.7 24.012C13.328 24.012 12.25 22.9315 12.25 21.6108C12.25 20.2901 13.3525 19.2096 14.7 19.2096C16.0475 19.2096 17.15 20.2901 17.15 21.6108C17.15 22.9315 16.072 24.012 14.7 24.012ZM24.5 24.012C23.128 24.012 22.05 22.9315 22.05 21.6108C22.05 20.2901 23.1525 19.2096 24.5 19.2096C25.8475 19.2096 26.95 20.2901 26.95 21.6108C26.95 22.9315 25.872 24.012 24.5 24.012ZM34.3 24.012C32.928 24.012 31.85 22.9315 31.85 21.6108C31.85 20.2901 32.9525 19.2096 34.3 19.2096C35.6475 19.2096 36.75 20.2901 36.75 21.6108C36.75 22.9315 35.672 24.012 34.3 24.012Z" fill="white"/>
</svg>
