<svg width="36" height="42" viewBox="0 0 36 42" fill="none" xmlns="http://www.w3.org/2000/svg">
<path d="M15.194 0C12.4084 0 10.1293 2.35135 10.1293 5.22522H5.06466C2.2791 5.22522 0 7.57657 0 10.4504H35.4526C35.4526 7.57657 33.1735 5.22522 30.388 5.22522H25.3233C25.3233 2.35135 23.0442 0 20.2586 0H15.194ZM5.06466 15.6757V40.809C5.06466 41.3838 5.46984 41.8018 6.02695 41.8018H29.4763C30.0334 41.8018 30.4386 41.3838 30.4386 40.809V15.6757H25.374V33.9639C25.374 35.427 24.2597 36.5766 22.8416 36.5766C21.4235 36.5766 20.3093 35.427 20.3093 33.9639V15.6757H15.2446V33.9639C15.2446 35.427 14.1304 36.5766 12.7123 36.5766C11.2942 36.5766 10.18 35.427 10.18 33.9639V15.6757H5.11531H5.06466Z" fill="#A80000"/>
</svg>
