<svg width="28" height="26" viewBox="0 0 28 26" fill="none" xmlns="http://www.w3.org/2000/svg">
<path d="M15.8526 0.548584C11.8308 0.548584 8.30768 3.27048 7.54322 6.87859C3.88711 6.87859 0.895752 9.72709 0.895752 13.2086C0.895752 14.3796 1.26136 15.4557 1.8264 16.3736H9.20509L15.8526 10.0436L22.5 16.3736H27.1865C27.3859 15.8672 27.4856 15.3608 27.4856 14.7911C27.4856 12.7338 26.0897 10.7082 24.1619 10.0436V8.46109C24.1619 4.09338 20.4393 0.548584 15.8526 0.548584ZM15.8526 14.7911L7.54322 22.7036H14.1907V24.2861C14.1907 24.7058 14.3658 25.1083 14.6774 25.4051C14.9891 25.7019 15.4118 25.8686 15.8526 25.8686C16.2933 25.8686 16.716 25.7019 17.0277 25.4051C17.3393 25.1083 17.5144 24.7058 17.5144 24.2861V22.7036H24.1619L15.8526 14.7911Z" fill="white"/>
</svg>
